<svg viewBox="0 0 9 9" fill="none" xmlns="http://www.w3.org/2000/svg">
<path d="M8.3514 1.55382C8.64429 1.26773 8.64429 0.803882 8.3514 0.517791C8.0585 0.2317 7.58363 0.2317 7.29074 0.517791L4.28554 3.4532L1.28034 0.517791C0.987446 0.231701 0.512572 0.2317 0.219679 0.517791C-0.073214 0.803882 -0.0732138 1.26773 0.219679 1.55382L3.22488 4.48922L0.21967 7.42464C-0.0732231 7.71073 -0.0732234 8.17457 0.21967 8.46066C0.512563 8.74675 0.987437 8.74675 1.28033 8.46066L4.28554 5.52525L7.29075 8.46066C7.58364 8.74676 8.05851 8.74676 8.35141 8.46066C8.6443 8.17457 8.6443 7.71073 8.35141 7.42464L5.3462 4.48922L8.3514 1.55382Z" fill="black"/>
</svg>
